<svg width="135" height="121" viewBox="0 0 135 121" fill="none" xmlns="http://www.w3.org/2000/svg">
<path d="M75.989 1.52602C77.2695 3.33635 78.5179 5.95651 79.3483 8.01582C79.6095 8.66071 79.0679 8.56935 79.2316 9.02404C79.5522 9.91304 80.1644 10.5611 80.4523 11.4563C80.5458 11.754 79.7744 11.7598 79.8859 12.0643C80.5009 13.7305 81.4746 15.0817 82.2345 16.691C85.9767 24.6182 90.037 32.1912 94.178 40.0127C95.5438 42.5913 96.7814 45.9689 98.5132 48.448C98.7159 48.737 99.1227 48.2615 99.1982 48.2953C100.366 48.8346 99.1601 49.125 99.3643 49.7979C100.178 52.4668 101.637 55.1158 103.138 57.2715C103.778 58.1878 104.237 56.6365 104.226 57.936C104.226 58.0256 103.543 58.0926 103.637 58.3906C103.852 59.0658 104.603 60.1491 104.827 60.6391C105.257 61.5851 105.348 61.7303 105.829 62.5821C106.482 63.7492 107.004 65.2834 107.842 66.4568C108.023 66.7063 108.377 66.035 108.715 66.4041C109.053 66.7737 109.65 67.9221 109.736 68.3756C109.823 68.8291 109.293 68.9194 109.231 69.044C108.701 70.0807 110.618 70.7045 110.743 70.8547C112.985 73.6139 113.817 76.607 115.46 79.4623C116.709 81.6291 118.261 83.8212 119.417 85.9018C120.791 88.382 121.686 90.6386 123.11 92.9969C123.26 93.2461 123.745 92.5748 123.929 92.8785C125.884 96.1051 127.678 99.3937 129.108 102.904C129.25 103.256 128.434 103.165 128.542 103.537C129.218 105.806 129.9 109.618 133.083 109.367C133.762 110.777 134.605 112.477 134.797 113.977C134.912 114.876 134.004 114.596 134.53 115.197L132.754 118.266C132.694 118.278 132.625 118.295 132.546 118.317C132.297 118.385 132.621 119.017 132.247 119.073C130.673 119.304 128.952 119.098 127.395 119.425C127.078 119.493 127.164 120.059 127.074 120.161C126.32 120.987 125.064 119.622 124.79 119.523C122.705 118.783 121.183 119.074 119.24 119.056C118.79 119.051 119.322 119.812 118.889 119.835C116.639 119.944 114.309 119.879 112.106 119.541C111.616 119.464 112.067 118.816 111.833 118.746C110.801 118.446 110.572 119.67 109.582 119.406C109.373 119.351 109.491 118.797 109.452 118.736C108.857 117.779 108.339 119.134 108.186 119.164C106.247 119.573 105.008 118.158 103.135 118.359C102.911 118.384 103.416 119.086 102.786 119.115C98.5898 119.308 94.1519 119.115 89.9984 118.554C89.3526 118.468 89.8136 117.94 89.773 117.875C89.1107 116.86 88.6821 118.22 88.4716 118.272C86.8104 118.641 85.2586 117.499 84.1299 119.12C77.0946 118.558 70.0916 119.468 63.1145 118.016C63.0258 117.999 63.1847 117.329 63.0078 117.298C60.8767 116.922 61.2859 117.963 59.8759 119.238C59.5207 119.557 58.4401 118.019 58.3445 117.907C57.9962 117.491 58.3575 116.494 58.2408 116.413C57.2756 115.781 57.4329 119.079 56.1309 119.08C56.0901 119.075 56.2612 118.468 56.1519 118.407C55.8124 118.218 55.4757 118.459 55.1435 118.25C54.3831 117.767 54.1123 116.164 52.9509 117.097C52.8039 117.218 53.0284 119.089 51.8659 119C51.4024 118.963 49.351 118.996 48.7761 118.874C48.2018 118.753 48.5961 118.15 48.5551 118.124C47.0079 117.327 47.5946 116.997 46.8194 115.817C46.0443 114.641 46.2592 117.445 45.9432 117.758C45.6267 118.07 44.4923 117.412 44.2135 117.184C43.9349 116.955 44.2824 116.572 44.0347 116.443C42.3919 115.597 43.3136 117.835 42.7723 118.28C41.4961 119.333 40.5022 117.254 39.3339 117.05C39.0177 116.995 39.2757 117.469 38.9942 117.513C37.8794 117.682 37.2088 117.033 35.9405 117.628C35.733 117.725 34.7076 118.975 34.0439 118.058C33.9499 117.926 34.217 117.407 33.7419 117.291C33.0321 117.117 31.7532 117.004 30.9902 117.177C30.4269 117.305 31.0726 118.159 30.3635 117.894C30.0484 117.775 30.6324 117.276 30.0404 117.095C29.4515 116.914 27.9459 116.936 27.3729 116.953C26.801 116.971 27.1141 117.619 27.0678 117.662C26.7882 117.912 25.6906 118.225 25.5936 118.224C20.7013 118.303 16.1898 117.211 11.4265 117.573C11.0527 117.6 11.3017 118.283 11.2447 118.294C9.96494 118.58 10.9739 116.764 10.08 116.157C10.2092 117.543 9.68144 117.292 8.78003 117.444C8.34566 117.518 8.5822 118.055 8.54258 118.11C7.89839 118.925 7.44986 117.872 7.33431 117.657C6.9077 116.864 6.44342 117.8 6.1531 117.271C5.86295 116.745 6.53071 115.966 5.66619 115.976C5.42374 116.472 6.0656 117.769 5.4092 117.979C4.42839 118.294 3.11087 118.324 1.75354 118.24L4.92334e-05 115.21C1.14291 113.479 2.56389 111.802 3.21834 110.791C4.29991 109.12 4.5403 108.518 5.27268 107.603C6.59585 105.951 5.37984 106.137 5.64507 104.791C5.91225 103.442 7.64913 105.171 8.1836 105.262C8.71616 105.356 8.3622 104.921 8.71854 104.862C9.07444 104.804 9.12863 105.404 9.48666 104.991C9.84476 104.579 9.79066 102.857 9.42403 102.427C8.64689 101.517 7.29196 101.5 8.35933 100.477C8.42137 100.418 8.82908 100.958 9.0393 100.719C10.6913 98.8051 12.0016 96.5841 13.6041 94.6457C13.8253 94.3797 14.2738 94.9889 14.4093 94.838C15.8227 93.267 14.4424 93.3259 13.8821 91.6978C15.2519 92.7781 16.4794 92.7612 17.2695 91.4065C17.745 90.5925 17.0105 90.3577 16.8536 89.5644C16.8059 89.326 17.587 89.0054 17.3398 88.724C16.5337 87.8012 15.0959 87.6997 16.3492 86.5551C16.4058 86.5059 16.8433 87.0177 16.9987 86.8243C18.0061 85.5758 17.0495 84.8076 17.7755 83.2495C18.3444 82.0282 20.1746 80.3263 21.0403 79.0609C22.7068 80.0554 23.0408 78.5822 22.1725 77.4079C22.7142 76.5751 23.1824 75.6084 23.8204 74.8692C24.0394 74.6145 24.4185 75.0824 24.4919 75.0765C25.6354 74.9977 24.7217 73.9753 24.7841 73.7643C25.5101 71.505 27.3074 70.3571 27.5748 67.9565C27.5838 67.871 26.4786 67.0891 27.6269 67.0661C27.7048 67.0667 27.8721 68.0064 28.4322 67.1267C28.9925 66.2469 30.5976 64.9037 30.7767 63.3382C30.8208 62.9598 30.3131 61.6469 31.4084 61.4567C31.5563 61.4324 31.8398 61.7148 32.0944 61.7035C32.9088 61.6619 31.8478 60.774 33.11 60.9004C34.3722 61.0267 35.6618 60.522 35.6962 58.8593C35.6992 58.8074 34.935 57.97 35.1784 57.5807C35.5677 56.9598 36.2807 56.1703 36.6555 55.5038C36.8347 55.1844 36.1366 55.0536 36.1576 54.9924C37.0583 52.6706 38.4495 51.4492 39.9883 49.2916C40.2715 48.8968 40.1709 47.2366 41.264 46.7852C42.4621 46.2883 44.7901 48.8439 45.287 46.405C45.4897 45.4226 42.4696 42.2962 45.1986 41.8895C46.3881 38.743 48.8782 36.6319 49.8734 33.3632C49.9185 33.2165 49.1439 32.2252 49.333 31.9279C49.6157 31.4876 50.231 31.5102 50.448 31.2045C51.3694 29.9304 51.6781 28.4574 52.4921 27.1862C52.8001 26.703 53.1888 27.1572 53.5562 26.5809C53.923 26.0047 53.5065 25.2407 54.2777 24.6175C54.8624 24.148 56.5247 24.298 57.1397 23.5823C55.8607 22.8067 56.2045 22.2701 56.4259 21.0923C56.4678 20.8656 55.9004 20.8085 55.8969 20.6879C55.8729 20.1912 56.44 20.0701 56.3849 19.5799C56.3722 19.4611 55.9317 19.2027 55.8964 19.0913C55.5792 18.1336 57.127 17.7456 57.3953 17.6802C58.4171 17.4265 58.0109 16.8001 58.5489 16.4643C59.0864 16.1292 58.9947 17.0393 59.477 16.5642C60.476 15.579 61.2698 14.0319 61.9742 12.8531C62.2525 12.3812 61.4752 12.3656 61.5013 12.2902C61.9157 11.2219 63.1152 10.5898 62.2507 9.36874C65.6863 10.4369 62.2957 8.60678 63.7118 7.55296C63.8246 7.47069 65.3451 8.15713 65.3125 8.70317C65.2797 9.24904 64.4598 9.63434 64.4508 10.4127C64.4479 10.5966 65.3378 12.1709 65.3569 12.3268C65.5048 13.5478 63.284 12.4328 63.1398 12.4101C61.5703 12.1899 62.4625 14.0014 62.4152 14.3163C62.1994 15.7571 61.3226 16.5827 61.0857 17.7554C60.9282 18.5209 62.3012 19.3935 61.9677 19.8741C60.86 21.472 58.5572 20.9289 59.3522 23.4912C59.5207 24.0395 61.2547 24.5872 59.3448 25.1076C59.2246 25.1401 57.5978 25.4065 57.9989 26.3309C58.0496 26.4472 58.4996 26.703 58.4877 26.8111C58.3989 27.5303 57.8193 27.7111 57.6281 28.4404C57.437 29.1696 57.2564 30.0749 56.6904 30.7077C56.3499 31.0894 55.1936 31.1658 54.8695 31.256C53.9425 31.5038 54.5482 32.6885 53.6251 32.6417C52.6966 32.5958 52.0182 31.2528 51.0021 31.9475C52.1479 32.6531 53.2979 33.4227 54.4378 34.1538C53.1865 36.2366 51.6186 38.0925 50.4558 40.2355C50.3128 40.5019 51.0937 40.5942 50.9566 40.889C50.3753 42.1313 49.3336 42.9096 48.8055 44.2409C48.3991 45.2727 48.4635 46.6973 48.0592 47.7881C46.3756 47.629 45.9806 49.3653 45.2425 50.3676C44.9845 50.719 44.6426 50.4891 44.3728 50.6894C43.3638 51.4501 44.8143 51.6554 44.8412 52.0383C44.9522 53.6787 42.2247 52.2466 41.4877 53.682C41.4478 53.7575 42.3506 55.48 42.3676 55.6555C42.4902 56.7795 41.797 55.5021 41.4071 55.9373C40.695 56.732 39.9939 57.1656 39.8006 58.4669C39.7461 58.8474 40.2062 60.0996 39.1748 60.3068C39.0395 60.3343 38.5944 60.0203 38.5302 60.0682C37.409 60.9568 38.8693 61.8361 38.9914 62.7822C39.1133 63.7283 37.5088 64.1594 37.0959 64.1975C36.0241 64.3022 37.0093 63.5958 36.9515 63.5236C36.2612 62.6687 35.9879 63.4985 35.5871 64.0222C34.0911 63.2718 33.7226 64.1146 35.1775 64.5686C35.3372 64.6168 35.4555 64.098 35.5871 64.0222C36.7228 65.3366 36.4043 66.3125 34.5229 66.5115C33.6415 66.6042 33.1602 65.7613 32.6396 67.2822C32.4027 67.9721 33.5382 68.3054 33.4953 69.0097C33.3965 70.6182 31.5311 71.7105 30.9361 73.0855C30.7202 73.5846 31.5285 73.442 31.3997 73.7939C31.0597 74.7287 30.2194 75.2426 29.939 76.2165C29.9143 76.3052 30.5945 76.4447 30.4493 76.7143C29.3599 78.7641 27.9873 80.3054 26.7704 82.3999C26.1826 83.4121 25.4555 85.4076 24.788 86.4225C23.6347 88.1833 21.5155 89.9472 20.8231 91.6198C20.3691 92.7092 21.0689 92.815 21.2085 93.4739C21.4814 94.7471 19.275 95.4558 18.9506 95.5355C18.9402 95.5377 19.3073 94.5866 18.746 94.8841C17.9787 94.8037 18.9536 95.5241 18.9506 95.5355C18.7398 95.5892 17.6073 97.2597 17.5175 97.669C17.4691 97.8916 18.0713 98.0976 18.0358 98.2077C17.1799 100.82 15.9745 103.236 14.3614 105.458C14.3265 105.493 13.7566 105.082 13.6821 105.17C12.6255 106.385 12.8627 107.688 12.6535 109.071C12.4442 110.454 11.7821 111.265 10.3576 111.336C9.99872 112.264 8.8361 113.223 8.15265 113.766C7.46924 114.31 8.59233 115.086 8.58008 115.161C8.30358 116.957 7.47533 117.808 6.54164 118.968L1.75354 110.695C2.21612 110.768 2.71035 110.835 3.26319 110.864C4.36191 110.924 6.54143 110.726 7.73106 110.577C8.67127 110.458 9.23767 110.776 10.104 110.573C10.2212 110.545 10.1028 109.94 10.1386 109.916C11.1054 109.192 10.6408 110.672 10.8404 110.937C11.5641 111.899 12.0113 112.411 13.2494 111.958C13.535 111.855 14.3669 109.723 14.8875 109.598C15.5644 109.44 15.3089 110.204 16.0176 110.019C16.0782 110.004 16.0656 109.532 16.503 109.553C18.5334 109.643 20.747 109.918 22.8569 109.87C23.1452 109.866 22.7756 109.118 23.1921 109.099C25.146 109.01 27.2877 109.038 29.1913 109.388C29.6599 109.476 29.3661 110 29.4678 110.156C30.0923 111.096 30.9779 109.729 31.1239 109.703C34.6093 109.047 37.2768 110.284 40.8292 109.695C41.0225 109.66 42.511 108.195 43.1751 109.451C43.2205 109.535 43.8775 110.821 44.4585 109.942C44.4946 109.887 44.0852 109.225 44.7996 109.292C45.5141 109.36 46.6639 108.918 47.6459 109.645C47.9568 109.874 48.6917 111.156 49.6191 110.134C49.6796 110.063 51.1113 107.751 51.6224 109.346C51.7053 109.609 51.6185 111.296 52.7255 110.431C52.9369 110.263 52.553 109.887 53.1102 109.652C53.9639 109.289 55.095 109.741 56.1444 108.99C56.3274 108.856 57.1065 107.711 57.7314 108.58C57.8292 108.717 57.6433 109.28 57.9733 109.343C59.5427 109.646 61.1859 109.269 62.7793 109.658C63.3437 109.795 63.0552 110.706 63.6435 110.95C64.2319 111.194 65.4173 111.429 66.0329 111.013C66.6487 110.597 65.9761 109.145 66.8986 109.029C70.9091 108.524 74.8819 109.376 78.8866 109.5C79.4805 109.519 78.9881 108.999 79.8634 108.99C83.0905 108.951 88.662 108.464 91.4622 109.568C93.7058 110.452 90.8823 111.125 92.5968 111.485C93.4241 111.656 94.3192 109.968 94.5189 109.915C96.4699 109.376 97.8259 110.123 99.5819 109.894C99.9445 109.846 99.5889 109.162 99.8975 109.129C100.952 109.011 102.06 109.316 103.067 109.26C103.519 109.233 103.436 108.711 103.851 108.751C104.846 108.842 105.726 109.061 106.696 109.551C106.785 109.596 106.189 110.246 106.925 110.27C108.116 110.307 109.595 110.79 110.966 110.291C111.372 110.141 111.388 108.947 112.263 109.772C112.446 109.944 112.212 111.378 113.231 110.139C113.402 109.933 115.113 108.262 115.952 109.339C116.174 109.623 116.739 110.796 117.228 110.612C117.294 110.582 117.029 109.941 117.434 109.878C118.862 109.669 120.359 109.737 121.827 109.536C122.218 109.482 121.635 108.818 122.219 108.757C123.825 108.589 125.83 108.758 127.401 108.966C127.98 109.044 127.579 109.594 127.622 109.654C128.299 110.627 128.7 109.313 128.924 109.237C130.323 108.778 131.388 109.395 132.677 109.232C132.707 109.228 132.732 109.221 132.754 109.21L126.677 119.709C126.453 119.561 126.095 120.005 126.019 119.974C125.18 119.609 126.427 119.523 126.303 119.058C125.959 117.754 125.192 116.521 124.467 115.418C124.199 115.014 123.84 115.847 123.608 115.48C122.219 113.315 120.949 110.964 120.047 108.59C119.878 108.142 120.511 108.121 120.572 107.972C121.009 106.939 119.457 106.684 119.243 106.544C118.265 105.906 118.492 105.31 117.955 104.559C115.321 100.898 112.845 95.9313 110.911 92.1583C108.387 87.2433 106.715 83.265 103.973 78.7706C103.8 78.4845 103.323 79.1476 103.165 78.9059C101.155 75.7673 99.5807 72.4447 97.5361 69.3175C97.3695 69.0602 96.9778 69.7941 96.6897 69.393C96.0947 68.5726 95.492 67.4467 95.1796 66.451C95.0261 65.9661 95.8829 66.2425 95.7177 65.7606C95.3342 64.6376 94.7557 63.53 94.0616 62.5489C93.7649 62.1322 93.5222 63.1576 93.1853 62.5879C90.8774 58.7148 88.5641 54.9379 87.1045 50.5226C87.0045 50.2199 88.1391 49.2519 87.5646 48.8162C87.1869 48.9756 86.7733 49.2163 86.3853 49.4141C82.9129 43.8406 80.1176 37.9554 76.9072 32.2102C76.7717 31.968 76.3371 32.7708 76.0713 32.3039C74.5324 29.6024 72.8417 27.0918 71.9268 23.9497C71.8351 23.6385 73.1006 23.0981 72.4581 22.3947C72.3437 22.2713 71.488 21.1478 71.0504 20.9816C70.9871 20.9613 70.5613 21.5006 70.3204 21.1185C68.9299 18.8928 67.687 16.4372 66.7206 13.9731C66.5657 13.5747 67.3788 13.6265 67.2736 13.3399C66.5227 11.3092 64.9182 9.55312 64.4367 7.47716C64.1165 6.08637 65.3864 5.93976 66.027 4.73487C66.1173 4.56465 65.7185 3.81866 66.2797 3.44576C67.6899 2.50605 69.4993 1.93876 70.9784 0.895162C71.2973 0.67098 70.3706 -0.102554 71.518 0.0113997C71.5958 0.0207322 72.2748 0.577456 72.6514 0.594238C72.9123 0.606692 73.3789 0.0460324 73.7662 0.154772C74.1533 0.263621 73.8135 0.822864 74.3376 1.0709C74.8653 1.31672 75.4355 0.747671 75.989 1.52602ZM5.0846 116.219C4.14371 116.545 6.16315 117.833 6.07176 116.843C6.06491 116.794 5.1317 116.201 5.0846 116.219ZM50.0604 37.1815C48.6559 37.5077 49.6664 38.8638 50.7185 38.6688C51.7697 38.4735 50.487 37.0813 50.0604 37.1815ZM54.4684 27.963C53.1748 28.5442 56.0267 30.3913 56.0448 28.9831C56.0468 28.9017 54.5438 27.9289 54.4684 27.963ZM67.9887 7.48845C68.0111 7.46362 67.7351 6.9212 67.7006 6.92429C66.8804 7.02227 67.4327 8.10663 67.9887 7.48845ZM58.7782 18.7781C58.2017 18.8603 58.1468 20.0193 58.8636 19.9174C59.4404 19.8352 59.4957 18.6755 58.7782 18.7781ZM39.3023 115.882C39.3141 115.918 39.7499 115.95 39.7411 115.748C39.7115 115.099 39.1051 115.282 39.3023 115.882ZM67.3055 3.85829C65.9299 5.99613 62.7328 5.93459 64.3844 3.69479C64.6835 3.28915 64.6218 5.07572 65.1584 4.64904C66.1385 3.86731 64.9984 2.31921 66.4089 1.75721C66.6658 1.65642 67.3894 3.73947 67.3067 3.86415C67.3063 3.8622 67.3059 3.86025 67.3055 3.85829ZM2.37701 115.162C2.34209 115.159 2.01557 115.668 2.03556 115.696C2.53148 116.357 3.18965 115.334 2.37701 115.162ZM64.7285 117.362C64.7618 117.429 66.1616 117.492 66.2073 117.43C66.9375 116.188 64.1074 116.057 64.7285 117.362ZM21.0972 79.0658C20.7625 78.1144 21.0767 77.3869 22.1702 77.4101C21.8001 77.9518 21.4656 78.519 21.0972 79.0658Z" fill="white"/>
</svg>
